# xmcd
#
# Track frame offsets:
# 150
# 15592
# 27223
# 43551
# 54703
# 69864
# 82946
# 98493
# 113699
# 130499
# 144268
# 156114
# 173087
# 185426
# 203250
# 221802
# 238018
# 249000
# 260458
# 275008
# 287760
# 304153
# 316700
#
# Disc length: 4418 seconds
#
#
# Revision: 0
# Processed by: cddbd v1.5.2PL0 Copyright (c) Steve Scherf et al.
# Submitted via: FreeRIP 2.945 
#
DISCID=2f114017
DTITLE=Cooper-JF1826 - Last-Mohicans10
DYEAR=1826
DGENRE=Native American
TTITLE0=LM 1001
TTITLE1=LM 1002
TTITLE2=LM 1003
TTITLE3=LM 1004
TTITLE4=LM 1005
TTITLE5=LM 1006
TTITLE6=LM 1007
TTITLE7=LM 1008
TTITLE8=LM 1009
TTITLE9=LM 1010
TTITLE10=LM 1011
TTITLE11=LM 1012
TTITLE12=LM 1013
TTITLE13=LM 1014
TTITLE14=LM 1015
TTITLE15=LM 1016
TTITLE16=LM 1017
TTITLE17=LM 1018
TTITLE18=LM 1019
TTITLE19=LM 1020
TTITLE20=LM 1021
TTITLE21=LM 1022
TTITLE22=LM 1023
EXTD=The Last of the Mohicans Tantor Media\nby James Finimore Cooper 12 CDs\nread by William Costello native country
EXTT0=
EXTT1=
EXTT2=
EXTT3=
EXTT4=
EXTT5=
EXTT6=
EXTT7=
EXTT8=
EXTT9=
EXTT10=
EXTT11=
EXTT12=
EXTT13=
EXTT14=
EXTT15=
EXTT16=
EXTT17=
EXTT18=
EXTT19=
EXTT20=
EXTT21=
EXTT22=
PLAYORDER=
